inDegrees=no
num_controls=7
num_derivatives=13
num_iterations=162
num_multipliers=7
num_parameters=0
num_slacks=7
num_states=26
objective=5.763141
objective_accelerations=0.509931
objective_balance=0.024796
objective_effort=0.522179
objective_height=4.587065
objective_ligament=0.119169
solver_duration=1724.369143
status=Solve_Succeeded
success=true
DataType=double
version=3
OpenSimVersion=4.4-2022-07-23-0e9fedc
endheader
time	/jointset/ground_pelvis/pelvis_tilt/value	/jointset/ground_pelvis/pelvis_tx/value	/jointset/ground_pelvis/pelvis_ty/value	/jointset/hip_l/hip_flexion_l/value	/jointset/hip_l/hip_adduction_l/value	/jointset/hip_l/hip_rotation_l/value	/jointset/back/lumbar_extension/value	/jointset/patellofemoral_l/patellar_flexion_l/value	/jointset/knee_l/knee_flexion_l/value	/jointset/knee_l/knee_adduction_l/value	/jointset/knee_l/knee_rotation_l/value	/jointset/ankle_l/ankle_angle_l/value	/jointset/subtalar_l/subtalar_angle_l/value	/jointset/ground_pelvis/pelvis_tilt/speed	/jointset/ground_pelvis/pelvis_tx/speed	/jointset/ground_pelvis/pelvis_ty/speed	/jointset/hip_l/hip_flexion_l/speed	/jointset/hip_l/hip_adduction_l/speed	/jointset/hip_l/hip_rotation_l/speed	/jointset/back/lumbar_extension/speed	/jointset/patellofemoral_l/patellar_flexion_l/speed	/jointset/knee_l/knee_flexion_l/speed	/jointset/knee_l/knee_adduction_l/speed	/jointset/knee_l/knee_rotation_l/speed	/jointset/ankle_l/ankle_angle_l/speed	/jointset/subtalar_l/subtalar_angle_l/speed	/forceset/tau_hip_flexion_l	/forceset/tau_hip_adduction_l	/forceset/tau_hip_rotation_l	/forceset/tau_knee_flexion_l	/forceset/tau_ankle_angle_l	/forceset/tau_subtalar_angle_l	/forceset/tau_lumbar_extension	lambda_cid13_p0	lambda_cid13_p1	lambda_cid13_p2	lambda_cid13_p3	lambda_cid13_p4	lambda_cid13_p5	lambda_cid14_p0	/jointset/ground_pelvis/pelvis_tilt/accel	/jointset/ground_pelvis/pelvis_tx/accel	/jointset/ground_pelvis/pelvis_ty/accel	/jointset/hip_l/hip_flexion_l/accel	/jointset/hip_l/hip_adduction_l/accel	/jointset/hip_l/hip_rotation_l/accel	/jointset/back/lumbar_extension/accel	/jointset/patellofemoral_l/patellar_flexion_l/accel	/jointset/knee_l/knee_flexion_l/accel	/jointset/knee_l/knee_adduction_l/accel	/jointset/knee_l/knee_rotation_l/accel	/jointset/ankle_l/ankle_angle_l/accel	/jointset/subtalar_l/subtalar_angle_l/accel	gamma_cid13_p0	gamma_cid13_p1	gamma_cid13_p2	gamma_cid13_p3	gamma_cid13_p4	gamma_cid13_p5	gamma_cid14_p0
1	-0.1890378153378204	-0.1025347043406161	0.688304469008715	1.398008410804137	-0.3262338860702456	0.03550986192784494	-0.9599309119064907	1.272617891453561	1.27261789145361	-0.07459323931967571	-0.1745328622813417	0.1490778648176402	0.01558085832560316	0.09950373565843568	0.02396089618814058	0.07055364236616328	-0.2901395677674378	-0.003287497170832431	-0.06390707146230951	-2.617114120768041e-05	-0.1627874370574785	-0.1627874370574794	-0.0004061562781301786	-6.539179132240116e-06	0.01941185926164861	0.004314696928113193	-0.4208819214662339	0.001316409469618962	-0.002750396891930534	-0.3208482657753231	0.121518677037902	0.03809483873148674	0.4469562342392304	-12.06804025780072	-13.96347795301792	1.237188304081323	5.985067594765731	-796.8257978713266	-70.74412968723887	-0.201252832751018	1.139881129319067	0.1474977869849744	1.473426380817337	-5.224187341069605	-0.1012943082401145	-1.560862263133642	-0.0108215118020469	-4.515191562750681	-4.515191562750726	-0.2458932916115607	-0.01463248677086259	-0.7319396897637888	-0.3625596736668294	-9.324743404778862e-09	-3.191268731042677e-09	5.355696526824563e-08	2.288812560920648e-09	-2.168575998539278e-08	8.43336271796187e-08	-1.44988822744579e-08
1.01	-0.1879862069000563	-0.1022876933510898	0.6890834392484646	1.394846776426712	-0.3262710823636334	0.0347922956441404	-0.9599310885968813	1.270764628256923	1.270764628256934	-0.07460804038369862	-0.1745328902431926	0.1492354437896493	0.01560676594234542	0.1108220604566184	0.0254463937218292	0.08522740160773021	-0.3421669972396513	-0.004142880460036475	-0.07959892718100658	-4.525691606271898e-06	-0.2078542354198896	-0.2078542354198899	-0.002552133288496347	1.399249389072521e-07	0.01209160497651525	0.0008723884989191548	-0.4199439913550715	0.00148414567525886	-0.002802524649700932	-0.320638566634963	0.1213861597879326	0.03823568871665727	0.4464473486755996	-12.0680095566306	-14.03338767146164	1.258309194253323	5.876423535100376	-796.3131139945945	-70.84719014480416	-0.2140220458232392	1.128422361063574	0.1498413257729441	1.462394499236879	-5.188976964198862	-0.07633251656604849	-1.572274461589656	0.009602739059868108	-4.500775121301896	-4.500775121301758	-0.1986708074375036	0.008214504300577234	-0.7339184102593092	-0.3342389301758609	-1.563319108680851e-08	-1.011480301932441e-08	7.254588834475219e-08	8.876156630614583e-09	-2.793775675734205e-08	9.909597742133821e-08	-1.907455661606944e-08
1.02	-0.1868212923731098	-0.1020256742683842	0.6900087558413117	1.391165476511788	-0.3263165669253736	0.03391802535617702	-0.9599308763982513	1.268461026846997	1.26846102684697	-0.07464424539816468	-0.1745328721350093	0.1493194501963329	0.01559841597426971	0.1221649534946247	0.02696251482399983	0.09982291298568596	-0.3940726752679357	-0.004945150841461465	-0.09524787231378051	5.492638672594542e-05	-0.2528550797149254	-0.2528550797149237	-0.004686946366397111	2.674841187978396e-06	0.004697346196533179	-0.002536820035482504	-0.4190060612439052	0.00165188188089962	-0.002854652407477625	-0.3204288674946035	0.1212536425379627	0.03837653870182872	0.4459384631119745	-12.07788295868882	-14.10066082615934	1.277979034473895	5.807665263172478	-795.9310124876299	-70.93267647568989	-0.230577904218181	1.144794777283804	0.1536225006813645	1.457776808095093	-5.199837052283763	-0.09067172668429255	-1.552280145949003	-0.003260186056015493	-4.502000749275596	-4.502000749275393	-0.2436605051184758	-0.01546132433525573	-0.7467405887335491	-0.3559396947083468	-2.207240664155936e-08	-1.871142057342227e-08	8.994159142716108e-08	1.49932550841526e-08	-3.434819243934201e-08	1.133100301660092e-07	-2.376881871167754e-08
1.03	-0.1855433968707794	-0.1017480882468812	0.6910796180411725	1.386966054964947	-0.3263697779019759	0.0328875800956427	-0.9599275195454315	1.265707790129026	1.265707790129028	-0.07470179935907058	-0.1745328038674907	0.1493294512458057	0.01555629024250657	0.133362127958587	0.02858540030251298	0.1143349820766937	-0.4457608868472769	-0.005687290999212545	-0.1108295987196994	0.0008573893107492164	-0.2977776558402617	-0.2977776558402632	-0.006825890181047681	9.514105028600621e-06	-0.00267880647756618	-0.005870219009610165	-0.420001744474234	0.002027198361060968	-0.002931383310300454	-0.3196168990128437	0.1209575071839015	0.03867681838125778	0.447659505537191	-12.1893796836623	-14.23004053553046	1.31972626611173	5.285854132865033	-796.7706796809259	-71.02697858533961	-0.2513627848124794	1.099373342009335	0.1712324534754826	1.445732032216849	-5.145704886757913	-0.06452887040229806	-1.559406065452423	0.1581413004778206	-4.485189116965215	-4.485189116965834	-0.1993327553770574	0.008562310534836491	-0.7303052813538327	-0.3193319094283336	-2.851295656235839e-08	-2.732511040574275e-08	1.073210371626914e-07	2.110555511303595e-08	-4.076024484491392e-08	1.275184880382613e-07	-2.846429088640805e-08
1.04	-0.1841550907115966	-0.1014533511941854	0.6922951629464658	1.382251272967113	-0.3264301190221719	0.03170166013553905	-0.9599089097095462	1.262505767035242	1.262505767035274	-0.07478080704527297	-0.1745327060555807	0.1492662402336163	0.01548137213886947	0.1442470848648212	0.0303927210625882	0.1287594540722157	-0.4971447654665656	-0.006371179560235749	-0.1263428122271824	0.003105522988621883	-0.3426123548777016	-0.3426123548777074	-0.008977691425247063	8.58372051175183e-06	-0.009945066135894272	-0.009095294410273503	-0.4209974277045749	0.002402514841219486	-0.003008114213135277	-0.3188049305310844	0.120661371829842	0.03897709806068441	0.4493805479623963	-12.3109640498274	-14.35683928682259	1.360131548688614	4.802391857809202	-797.744662215999	-71.10442942301671	-0.2768788429687072	1.082351265738174	0.1905095569937744	1.440257388997935	-5.138970460273276	-0.07902140733876517	-1.538577566261863	0.2858739647137426	-4.484425331696331	-4.484425331696329	-0.246231991028255	-0.01701525400684742	-0.724761985579307	-0.3342749800155411	-3.167046080077282e-08	-3.586719580083543e-08	1.213213458541157e-07	2.132235119490833e-08	-4.490684329300662e-08	1.35137413530325e-07	-3.214911718491128e-08
1.05	-0.1826593102883528	-0.1011396495095171	0.6936544454969015	1.377024195936025	-0.3264969878156697	0.03036106057424335	-0.9598612130558142	1.258855953286473	1.258855953286492	-0.07488145840719707	-0.1745326584708125	0.1491308280043639	0.01537473694602201	0.1548732692885891	0.03237520887194471	0.1430753070108116	-0.5482151106987422	-0.006988217320933744	-0.1417598929329863	0.006615442712760526	-0.3873241098588211	-0.3873241098588215	-0.01115221394330959	1.604279275521408e-06	-0.01712736367770433	-0.01221116504176193	-0.4211031345433615	0.002764135470219986	-0.00310149680770756	-0.3179428344065479	0.1205424438852039	0.03930957756057884	0.4502602066999896	-12.32883628363658	-14.51810676626837	1.408687827508049	4.306929099736094	-797.9552458003839	-71.2377849017719	-0.3077337497330624	1.047389111508286	0.2062616143279579	1.423977057960736	-5.082741730322667	-0.05089983591620624	-1.54072308004554	0.4107962194210579	-4.460600631356197	-4.460600631355407	-0.2030262025262777	0.007592978912336455	-0.7134639765507107	-0.2971647734913238	-3.472536986161276e-08	-4.440704355726474e-08	1.352160565129117e-07	2.135491277843664e-08	-4.898264630492811e-08	1.425504161355078e-07	-3.580236079978241e-08
1.06	-0.181058340604707	-0.100805294302471	0.6951562321390573	1.371288080417493	-0.3265695979618694	0.02886680025442642	-0.9597729681562051	1.254759811977887	1.254759811977889	-0.07500384775837028	-0.1745326542268146	0.1489238927320797	0.0152375587131045	0.1652849369448415	0.03452342553814762	0.1572602724162204	-0.5989524629562322	-0.007519450100868053	-0.1570749639310252	0.01121517216318266	-0.4318778668413982	-0.4318778668413933	-0.01332528927461319	-8.443818774135216e-08	-0.02424967474226894	-0.01520390242428412	-0.421208841382138	0.003125756099220597	-0.003194879402287687	-0.3170807382820109	0.1204235159405644	0.03964205706047292	0.4511398654375927	-12.35682506631623	-14.67695447637035	1.456117745449165	3.847503369071312	-798.3017142621492	-71.35628430232784	-0.344566963225839	1.039447912235097	0.2236553283630455	1.414079882360511	-5.072371865336006	-0.06186041118605554	-1.518175624708884	0.5038359099704297	-4.452825731987874	-4.452825731987866	-0.2459425536764788	-0.01595710925231164	-0.7127646901302365	-0.3096483302223305	-3.794424817077044e-08	-5.366446917938917e-08	1.452210949585394e-07	2.201818054377811e-08	-5.30589163961662e-08	1.47572782841051e-07	-3.894593395369686e-08
1.07	-0.1793543155050533	-0.1004486100760083	0.696799151683329	1.365046365461828	-0.3266470904880101	0.02722001138160252	-0.9596332850863042	1.250219013845909	1.250219013845924	-0.0751480577585997	-0.1745326591702905	0.1486460041388878	0.01507105916509834	0.1754837000795123	0.03684286341760096	0.1712954877724957	-0.6493223921930766	-0.00796225983915947	-0.1722617663843215	0.01690462361332698	-0.476246590871382	-0.4762465908713828	-0.0155161980874201	-8.515296827652012e-07	-0.03132042620033593	-0.01807334083572492	-0.4209952671328778	0.003525931106441584	-0.003304905697825974	-0.3160253576958316	0.120337894754931	0.04003350430450191	0.4517798865540903	-12.3465658370249	-14.87243682709318	1.514331759618771	3.321242441544936	-798.2716439294032	-71.51800441721235	-0.3881180539548393	1.004629152143881	0.2405091200279932	1.394008577719563	-5.009088503970229	-0.03298209789855214	-1.515812556915058	0.6289770319837342	-4.423611979546314	-4.423611979547204	-0.2056111209691629	0.007907422503596414	-0.7030914097333317	-0.2721994616332472	-4.117184824845568e-08	-6.296006383692291e-08	1.550192359460197e-07	2.271499651027985e-08	-5.713521133204879e-08	1.524679880625708e-07	-4.206239697670935e-08
1.08	-0.1775493950464389	-0.1000678472502927	0.698581576624255	1.358302994203572	-0.3267285092800832	0.02542197848398987	-0.9594312120480117	1.245235585225423	1.245235585225452	-0.07531416606213548	-0.174532662998348	0.1482976358238978	0.01487654365997212	0.1854640087366112	0.03933914538870503	0.1851613517471073	-0.6992837234743861	-0.008304703287366284	-0.187323768888619	0.02369316584136166	-0.5204039645430734	-0.52040396454308	-0.01770494993568134	1.386428900436741e-07	-0.03834561910193909	-0.02080709384829736	-0.4207816928836278	0.003926106113662416	-0.003414931993371243	-0.3149699771096517	0.1202522735693001	0.04042495154853176	0.4524199076705784	-12.34650761189361	-15.0656548341912	1.571638614084167	2.828725506902861	-798.3798334696036	-71.6671592126809	-0.4391516279036045	0.9957570167207753	0.2590241466931772	1.380209606027758	-4.990652274228976	-0.04178715316913845	-1.493215634909135	0.7236540655485033	-4.410555660329402	-4.410555660329404	-0.2455111607673449	-0.01560565643875416	-0.7036529788374946	-0.2825112504486731	-4.358137399507708e-08	-7.174225087545671e-08	1.600170351234175e-07	2.289133785566469e-08	-6.043710474914919e-08	1.533660559783888e-07	-4.418421706117312e-08
